<svg width="48" height="48" viewBox="0 0 48 48" fill="none" xmlns="http://www.w3.org/2000/svg">
<path d="M10.5839 5.69272C11.1866 5.02795 11.1293 4.00671 10.4559 3.41172C9.78258 2.81673 8.74815 2.8733 8.14548 3.53808C5.5254 6.42813 3.70229 10.042 3.02281 14.0404C2.87329 14.9203 3.47456 15.7532 4.36578 15.9008C5.257 16.0484 6.10068 15.4548 6.2502 14.575C6.82422 11.1971 8.36442 8.14093 10.5839 5.69272Z" fill="#262626"/>
<path d="M39.8545 3.53808C39.2518 2.8733 38.2174 2.81673 37.5441 3.41172C36.8707 4.00671 36.8134 5.02795 37.4161 5.69272C39.6356 8.14093 41.1758 11.1971 41.7498 14.575C41.8993 15.4548 42.743 16.0484 43.6342 15.9008C44.5254 15.7532 45.1267 14.9203 44.9772 14.0404C44.2977 10.042 42.4746 6.42813 39.8545 3.53808Z" fill="#262626"/>
<path fill-rule="evenodd" clip-rule="evenodd" d="M24.0004 3C15.8675 3 9.27441 9.50886 9.27417 17.538L9.27374 19.1538C9.27374 23.7267 7.52619 27.8929 4.65178 31.0428C4.28853 31.4409 4.14884 31.9909 4.27885 32.511C4.40887 33.0312 4.79167 33.4539 5.30079 33.6395C8.66955 34.8672 12.1961 35.7728 15.8418 36.3184C15.8268 36.5182 15.8192 36.7198 15.8192 36.9231C15.8192 41.3838 19.482 45 24.0004 45C28.5188 45 32.1816 41.3838 32.1816 36.9231C32.1816 36.7198 32.174 36.5181 32.159 36.3183C35.8044 35.7726 39.3307 34.8671 42.6992 33.6395C43.2083 33.4539 43.5911 33.0312 43.7211 32.511C43.8511 31.9909 43.7114 31.4409 43.3482 31.0428C40.4738 27.8929 38.7262 23.7267 38.7262 19.1538V17.6444L38.7266 17.5385C38.7266 9.50909 32.1335 3 24.0004 3ZM19.0917 36.9231C19.0917 36.8503 19.0933 36.778 19.0965 36.7061C20.7119 36.8497 22.3475 36.9231 24 36.9231C25.6528 36.9231 27.2886 36.8497 28.9043 36.706C28.9075 36.7779 28.9091 36.8503 28.9091 36.9231C28.9091 39.5995 26.7114 41.7692 24.0004 41.7692C21.2894 41.7692 19.0917 39.5995 19.0917 36.9231Z" fill="#262626"/>
</svg>
