<svg width="25" height="25" viewBox="0 0 25 25" fill="none" xmlns="http://www.w3.org/2000/svg">
<path d="M7.20942 0.216424C5.97844 -0.0721413 4.69741 -0.0721413 3.46642 0.216424C2.67584 0.401845 1.95272 0.80432 1.37852 1.37852C0.80432 1.95272 0.401845 2.67584 0.216424 3.46642C-0.0721413 4.69741 -0.0721413 5.97844 0.216424 7.20942C0.401845 8.00001 0.80432 8.72313 1.37852 9.29733C1.95272 9.87153 2.67584 10.274 3.46642 10.4594C4.69741 10.748 5.97844 10.748 7.20942 10.4594C8.00001 10.274 8.72313 9.87153 9.29733 9.29733C9.87153 8.72313 10.274 8.00001 10.4594 7.20942C10.748 5.97844 10.748 4.69741 10.4594 3.46642C10.274 2.67584 9.87153 1.95272 9.29733 1.37852C8.72313 0.80432 8.00001 0.401845 7.20942 0.216424Z" fill="#262626"/>
<path d="M7.20942 14.5404C5.97844 14.2518 4.69741 14.2518 3.46642 14.5404C2.67584 14.7258 1.95272 15.1283 1.37852 15.7025C0.80432 16.2767 0.401845 16.9998 0.216424 17.7904C-0.0721413 19.0214 -0.0721413 20.3024 0.216424 21.5334C0.401845 22.324 0.80432 23.0471 1.37852 23.6213C1.95272 24.1955 2.67584 24.598 3.46642 24.7834C4.69741 25.072 5.97844 25.072 7.20942 24.7834C8.00001 24.598 8.72313 24.1955 9.29733 23.6213C9.87153 23.0471 10.274 22.324 10.4594 21.5334C10.748 20.3024 10.748 19.0214 10.4594 17.7904C10.274 16.9998 9.87153 16.2767 9.29733 15.7025C8.72313 15.1283 8.00001 14.7258 7.20942 14.5404Z" fill="#262626"/>
<path d="M21.5334 0.216424C20.3024 -0.0721413 19.0214 -0.0721413 17.7904 0.216424C16.9998 0.401845 16.2767 0.80432 15.7025 1.37852C15.1283 1.95272 14.7258 2.67584 14.5404 3.46642C14.2518 4.69741 14.2518 5.97844 14.5404 7.20942C14.7258 8.00001 15.1283 8.72313 15.7025 9.29733C16.2767 9.87153 16.9998 10.274 17.7904 10.4594C19.0214 10.748 20.3024 10.748 21.5334 10.4594C22.324 10.274 23.0471 9.87153 23.6213 9.29733C24.1955 8.72313 24.598 8.00001 24.7834 7.20942C25.072 5.97844 25.072 4.69741 24.7834 3.46642C24.598 2.67584 24.1955 1.95272 23.6213 1.37852C23.0471 0.80432 22.324 0.401845 21.5334 0.216424Z" fill="#262626"/>
<path d="M21.5334 14.5404C20.3024 14.2518 19.0214 14.2518 17.7904 14.5404C16.9998 14.7258 16.2767 15.1283 15.7025 15.7025C15.1283 16.2767 14.7258 16.9998 14.5404 17.7904C14.2518 19.0214 14.2518 20.3024 14.5404 21.5334C14.7258 22.324 15.1283 23.0471 15.7025 23.6213C16.2767 24.1955 16.9998 24.598 17.7904 24.7834C19.0214 25.072 20.3024 25.072 21.5334 24.7834C22.324 24.598 23.0471 24.1955 23.6213 23.6213C24.1955 23.0471 24.598 22.324 24.7834 21.5334C25.072 20.3024 25.072 19.0214 24.7834 17.7904C24.598 16.9998 24.1955 16.2767 23.6213 15.7025C23.0471 15.1283 22.324 14.7258 21.5334 14.5404Z" fill="#262626"/>
</svg>
