<svg width="48" height="48" viewBox="0 0 48 48" fill="none" xmlns="http://www.w3.org/2000/svg">
<g clip-path="url(#clip0_105_170)">
<path d="M13.8422 0.415536C11.4787 -0.138512 9.01907 -0.138512 6.65557 0.415536C5.13764 0.771547 3.74925 1.5443 2.64678 2.64678C1.5443 3.74925 0.771547 5.13764 0.415536 6.65557C-0.138512 9.01907 -0.138512 11.4787 0.415536 13.8422C0.771547 15.3601 1.5443 16.7485 2.64678 17.851C3.74925 18.9534 5.13764 19.7262 6.65557 20.0822C9.01907 20.6363 11.4787 20.6363 13.8422 20.0822C15.3601 19.7262 16.7485 18.9534 17.851 17.851C18.9534 16.7485 19.7262 15.3601 20.0822 13.8422C20.6363 11.4787 20.6363 9.01907 20.0822 6.65557C19.7262 5.13764 18.9534 3.74925 17.851 2.64678C16.7485 1.5443 15.3601 0.771547 13.8422 0.415536Z" fill="#262626"/>
<path d="M13.8422 27.9177C11.4787 27.3637 9.01907 27.3637 6.65557 27.9177C5.13764 28.2737 3.74925 29.0465 2.64678 30.149C1.5443 31.2514 0.771547 32.6398 0.415536 34.1578C-0.138512 36.5213 -0.138512 38.9809 0.415536 41.3444C0.771547 42.8623 1.5443 44.2507 2.64678 45.3532C3.74925 46.4556 5.13764 47.2284 6.65557 47.5844C9.01907 48.1385 11.4787 48.1385 13.8422 47.5844C15.3601 47.2284 16.7485 46.4556 17.851 45.3532C18.9534 44.2507 19.7262 42.8623 20.0822 41.3444C20.6363 38.9809 20.6363 36.5213 20.0822 34.1578C19.7262 32.6398 18.9534 31.2514 17.851 30.149C16.7485 29.0465 15.3601 28.2737 13.8422 27.9177Z" fill="#262626"/>
<path d="M41.3444 0.415536C38.9809 -0.138512 36.5213 -0.138512 34.1578 0.415536C32.6398 0.771547 31.2514 1.5443 30.149 2.64678C29.0465 3.74925 28.2737 5.13764 27.9177 6.65557C27.3637 9.01907 27.3637 11.4787 27.9177 13.8422C28.2737 15.3601 29.0465 16.7485 30.149 17.851C31.2514 18.9534 32.6398 19.7262 34.1578 20.0822C36.5213 20.6363 38.9809 20.6363 41.3444 20.0822C42.8623 19.7262 44.2507 18.9534 45.3532 17.851C46.4556 16.7485 47.2284 15.3601 47.5844 13.8422C48.1385 11.4787 48.1385 9.01907 47.5844 6.65557C47.2284 5.13764 46.4556 3.74925 45.3532 2.64678C44.2507 1.5443 42.8623 0.771547 41.3444 0.415536Z" fill="#262626"/>
<path d="M41.3444 27.9177C38.9809 27.3637 36.5213 27.3637 34.1578 27.9177C32.6398 28.2737 31.2514 29.0465 30.149 30.149C29.0465 31.2514 28.2737 32.6398 27.9177 34.1578C27.3637 36.5213 27.3637 38.9809 27.9177 41.3444C28.2737 42.8623 29.0465 44.2507 30.149 45.3532C31.2514 46.4556 32.6398 47.2284 34.1578 47.5844C36.5213 48.1385 38.9809 48.1385 41.3444 47.5844C42.8623 47.2284 44.2507 46.4556 45.3532 45.3532C46.4556 44.2507 47.2284 42.8623 47.5844 41.3444C48.1385 38.9809 48.1385 36.5213 47.5844 34.1578C47.2284 32.6398 46.4556 31.2514 45.3532 30.149C44.2507 29.0465 42.8623 28.2737 41.3444 27.9177Z" fill="#262626"/>
</g>
<defs>
<clipPath id="clip0_105_170">
<rect width="48" height="48" fill="white"/>
</clipPath>
</defs>
</svg>
