<svg width="48" height="48" viewBox="0 0 48 48" fill="none" xmlns="http://www.w3.org/2000/svg">
<path d="M9.1512 4.8374C13.498 4.28488 17.93 4 22.4292 4C26.9279 4 31.3594 4.28483 35.7058 4.83723C39.7334 5.34911 42.6022 8.65511 42.841 12.4819C42.1584 12.2587 41.4349 12.1107 40.6782 12.0492C37.7688 11.8128 34.8268 11.6923 31.8571 11.6923C28.8874 11.6923 25.9455 11.8128 23.0362 12.0492C18.095 12.4507 14.5714 16.5429 14.5714 21.145V29.9358C14.5714 33.4038 16.5717 36.5797 19.6687 38.1084L14.1112 43.5494C13.6617 43.9893 12.9858 44.121 12.3986 43.8828C11.8114 43.6447 11.4286 43.0837 11.4286 42.4615V34.1959C10.6669 34.1161 9.90779 34.028 9.15122 33.9318C4.9431 33.397 2 29.8119 2 25.7695V12.9997C2 8.95737 4.94309 5.37228 9.1512 4.8374Z" fill="#262626"/>
<path d="M31.8571 14.7692C28.9743 14.7692 26.1191 14.8862 23.2961 15.1156C20.0709 15.3776 17.7143 18.057 17.7143 21.145V29.9358C17.7143 33.0284 20.0776 35.7093 23.3069 35.9674C25.9131 36.1757 28.5468 36.2896 31.2042 36.3057L37.0317 42.0109C37.4811 42.4509 38.157 42.5825 38.7442 42.3444C39.3314 42.1063 39.7143 41.5453 39.7143 40.923V36.0207C39.9455 36.0037 40.1765 35.986 40.4072 35.9676C43.6366 35.7096 46 33.0287 46 29.9359V21.145C46 18.0571 43.6434 15.3776 40.4182 15.1156C37.5952 14.8862 34.7399 14.7692 31.8571 14.7692Z" fill="#262626"/>
</svg>
