<svg width="48" height="48" viewBox="0 0 48 48" fill="none" xmlns="http://www.w3.org/2000/svg">
<path fill-rule="evenodd" clip-rule="evenodd" d="M23.612 2C21.5438 2 19.7788 3.49521 19.4387 5.53523L19.2322 6.7746C19.1265 7.4085 18.6683 7.92099 18.0664 8.14634C17.7003 8.28342 17.3403 8.43281 16.9867 8.59401C16.4017 8.86075 15.715 8.82254 15.1918 8.44885L14.1688 7.71815C12.4859 6.51605 10.1805 6.70685 8.71811 8.16926L8.16931 8.71806C6.7069 10.1805 6.5161 12.4858 7.71819 14.1688L8.44888 15.1917C8.82258 15.7149 8.86078 16.4017 8.59404 16.9867C8.43283 17.3402 8.28343 17.7003 8.14635 18.0664C7.921 18.6682 7.40851 19.1265 6.77461 19.2322L5.53524 19.4387C3.49521 19.7787 2 21.5438 2 23.6119V24.388C2 26.4562 3.49521 28.2212 5.53523 28.5613L6.7746 28.7678C7.4085 28.8735 7.92099 29.3317 8.14634 29.9336C8.28341 30.2997 8.4328 30.6597 8.59401 31.0133C8.86074 31.5983 8.82254 32.285 8.44884 32.8082L7.7181 33.8313C6.516 35.5142 6.70679 37.8195 8.16921 39.2819L8.71801 39.8307C10.1804 41.2932 12.4858 41.484 14.1687 40.2819L15.1917 39.5511C15.7149 39.1774 16.4017 39.1392 16.9867 39.406C17.3402 39.5672 17.7003 39.7166 18.0664 39.8536C18.6682 40.079 19.1265 40.5915 19.2322 41.2254L19.4387 42.4648C19.7787 44.5048 21.5438 46 23.6119 46H24.388C26.4562 46 28.2212 44.5048 28.5613 42.4648L28.7678 41.2254C28.8735 40.5915 29.3317 40.079 29.9336 39.8537C30.2997 39.7166 30.6597 39.5672 31.0133 39.406C31.5983 39.1393 32.285 39.1775 32.8082 39.5512L33.8312 40.2819C35.5141 41.4839 37.8195 41.2932 39.2819 39.8307L39.8307 39.2819C41.2931 37.8195 41.4839 35.5142 40.2818 33.8312L39.5511 32.8083C39.1774 32.2851 39.1392 31.5983 39.406 31.0133C39.5672 30.6598 39.7166 30.2997 39.8536 29.9336C40.079 29.3318 40.5915 28.8735 41.2254 28.7678L42.4648 28.5613C44.5048 28.2213 46 26.4562 46 24.3881V23.612C46 21.5438 44.5048 19.7788 42.4648 19.4387L41.2254 19.2322C40.5915 19.1265 40.079 18.6683 39.8537 18.0664C39.7166 17.7003 39.5672 17.3403 39.406 16.9867C39.1393 16.4018 39.1775 15.715 39.5512 15.1918L40.2819 14.1687C41.484 12.4858 41.2932 10.1805 39.8308 8.71806L39.282 8.16926C37.8196 6.70684 35.5142 6.51605 33.8313 7.71814L32.8083 8.44887C32.2851 8.82257 31.5983 8.86077 31.0133 8.59404C30.6598 8.43283 30.2997 8.28343 29.9336 8.14635C29.3318 7.921 28.8735 7.40851 28.7678 6.77462L28.5613 5.53524C28.2213 3.49521 26.4562 2 24.3881 2H23.612ZM24 32.4615C28.6732 32.4615 32.4615 28.6732 32.4615 24C32.4615 19.3268 28.6732 15.5385 24 15.5385C19.3268 15.5385 15.5385 19.3268 15.5385 24C15.5385 28.6732 19.3268 32.4615 24 32.4615Z" fill="#262626"/>
</svg>
