<svg width="16" height="17" viewBox="0 0 16 17" fill="none" xmlns="http://www.w3.org/2000/svg">
<g clip-path="url(#clip0_214_155)">
<g filter="url(#filter0_d_214_155)">
<path d="M12.6667 13.6454H12.0756C11.4533 13.6454 10.8622 13.878 10.4267 14.2983L9.09667 15.5666C8.49 16.1445 7.50222 16.1445 6.89556 15.5666L5.56556 14.2983C5.13 13.878 4.53111 13.6454 3.91667 13.6454H3.33333C2.04222 13.6454 1 12.6473 1 11.4165V3.22889C1 1.99812 2.04222 1 3.33333 1H12.6667C13.9578 1 15 1.99812 15 3.22889V11.4165C15 12.6398 13.9578 13.6454 12.6667 13.6454Z" stroke="black" stroke-width="1.16667" stroke-miterlimit="10" stroke-linecap="round" stroke-linejoin="round" shape-rendering="crispEdges"/>
</g>
<g filter="url(#filter1_d_214_155)">
<path d="M4 6.36586C4 5.66793 4.59111 5.09757 5.31444 5.09757C6.03778 5.09757 6.62889 5.66793 6.62889 6.36586C6.62889 7.77675 4.55222 7.92684 4.09333 9.27018C4 9.54785 4.24111 9.82553 4.54444 9.82553H6.62889M11.0311 9.81802V5.53284C11.0315 5.43802 10.9999 5.34566 10.9409 5.2698C10.8819 5.19394 10.7989 5.13874 10.7044 5.11258C10.6093 5.08666 10.5081 5.0909 10.4157 5.12468C10.3233 5.15846 10.2446 5.21999 10.1911 5.3002C9.63111 6.17074 9.02444 7.16136 8.49556 8.0319C8.41 8.17449 8.41 8.36211 8.49556 8.5047C8.58111 8.64729 8.74444 8.73735 8.92333 8.73735H11.7778" stroke="black" stroke-width="1.16667" stroke-linecap="round" stroke-linejoin="round" shape-rendering="crispEdges"/>
</g>
</g>
<defs>
<filter id="filter0_d_214_155" x="-3.58331" y="0.416626" width="23.1666" height="24.1667" filterUnits="userSpaceOnUse" color-interpolation-filters="sRGB">
<feFlood flood-opacity="0" result="BackgroundImageFix"/>
<feColorMatrix in="SourceAlpha" type="matrix" values="0 0 0 0 0 0 0 0 0 0 0 0 0 0 0 0 0 0 127 0" result="hardAlpha"/>
<feOffset dy="4"/>
<feGaussianBlur stdDeviation="2"/>
<feComposite in2="hardAlpha" operator="out"/>
<feColorMatrix type="matrix" values="0 0 0 0 0 0 0 0 0 0 0 0 0 0 0 0 0 0 0.25 0"/>
<feBlend mode="normal" in2="BackgroundImageFix" result="effect1_dropShadow_214_155"/>
<feBlend mode="normal" in="SourceGraphic" in2="effect1_dropShadow_214_155" result="shape"/>
</filter>
<filter id="filter1_d_214_155" x="-0.583313" y="4.51245" width="16.9444" height="13.8964" filterUnits="userSpaceOnUse" color-interpolation-filters="sRGB">
<feFlood flood-opacity="0" result="BackgroundImageFix"/>
<feColorMatrix in="SourceAlpha" type="matrix" values="0 0 0 0 0 0 0 0 0 0 0 0 0 0 0 0 0 0 127 0" result="hardAlpha"/>
<feOffset dy="4"/>
<feGaussianBlur stdDeviation="2"/>
<feComposite in2="hardAlpha" operator="out"/>
<feColorMatrix type="matrix" values="0 0 0 0 0 0 0 0 0 0 0 0 0 0 0 0 0 0 0.25 0"/>
<feBlend mode="normal" in2="BackgroundImageFix" result="effect1_dropShadow_214_155"/>
<feBlend mode="normal" in="SourceGraphic" in2="effect1_dropShadow_214_155" result="shape"/>
</filter>
<clipPath id="clip0_214_155">
<rect width="16" height="17" fill="white"/>
</clipPath>
</defs>
</svg>
