<svg width="16" height="16" viewBox="0 0 16 16" fill="none" xmlns="http://www.w3.org/2000/svg">
<path d="M5 2.66667C5 1.19391 6.34315 0 8 0C9.65685 0 11 1.19391 11 2.66667V8C11 9.47276 9.65685 10.6667 8 10.6667C6.34315 10.6667 5 9.47276 5 8V2.66667Z" fill="#1E1E1E"/>
<path d="M3.5 7.68251C3.5 7.31432 3.16421 7.01584 2.75 7.01584C2.33579 7.01584 2 7.31432 2 7.68251V7.99997C2 10.7197 4.29027 12.964 7.25 13.292V14.6667H5.75C5.33579 14.6667 5 14.9651 5 15.3333C5 15.7015 5.33579 16 5.75 16H10.25C10.6642 16 11 15.7015 11 15.3333C11 14.9651 10.6642 14.6667 10.25 14.6667H8.75V13.292C11.7097 12.964 14 10.7197 14 7.99997V7.68251C14 7.31432 13.6642 7.01584 13.25 7.01584C12.8358 7.01584 12.5 7.31432 12.5 7.68251V7.99997C12.5 10.2091 10.4853 12 8 12C5.51472 12 3.5 10.2091 3.5 7.99997V7.68251Z" fill="#1E1E1E"/>
</svg>
