<svg width="40" height="40" viewBox="0 0 40 40" fill="none" xmlns="http://www.w3.org/2000/svg">
<path d="M15 13.6564C15 11.3782 16.8468 9.53137 19.125 9.53137C21.4032 9.53137 23.25 11.3782 23.25 13.6564C23.25 15.9345 21.4032 17.7814 19.125 17.7814C16.8468 17.7814 15 15.9345 15 13.6564Z" fill="#262626"/>
<path d="M12 26.4064C12 22.4713 15.19 19.2814 19.125 19.2814C23.06 19.2814 26.25 22.4713 26.25 26.4064V26.4089C26.25 26.4487 26.2496 26.4887 26.249 26.5283C26.2446 26.7868 26.1074 27.0249 25.8859 27.1582C23.9107 28.3475 21.5966 29.0314 19.125 29.0314C16.6534 29.0314 14.3393 28.3475 12.3641 27.1582C12.1426 27.0249 12.0054 26.7868 12.001 26.5283C12.0003 26.4878 12 26.4471 12 26.4064Z" fill="#262626"/>
<path d="M28.5 14.7814C28.5 14.3672 28.1642 14.0314 27.75 14.0314C27.3358 14.0314 27 14.3672 27 14.7814V17.0314H24.75C24.3358 17.0314 24 17.3672 24 17.7814C24 18.1956 24.3358 18.5314 24.75 18.5314H27V20.7814C27 21.1956 27.3358 21.5314 27.75 21.5314C28.1642 21.5314 28.5 21.1956 28.5 20.7814V18.5314H30.75C31.1642 18.5314 31.5 18.1956 31.5 17.7814C31.5 17.3672 31.1642 17.0314 30.75 17.0314H28.5V14.7814Z" fill="#262626"/>
<circle cx="20" cy="20" r="19.5" stroke="#262626" stroke-dasharray="5 5"/>
</svg>
