<svg width="18" height="18" viewBox="0 0 18 18" fill="none" xmlns="http://www.w3.org/2000/svg">
<path d="M12.1439 1.55606e-09C11.4675 -2.18065e-05 10.811 0.229187 10.2812 0.65035C9.7513 1.07151 9.37926 1.65985 9.22556 2.31969H0.816794C0.600166 2.31969 0.392412 2.4059 0.239233 2.55934C0.0860549 2.71278 0 2.92089 0 3.13788C0 3.35488 0.0860549 3.56299 0.239233 3.71643C0.392412 3.86987 0.600166 3.95608 0.816794 3.95608H9.30267C9.50225 4.55232 9.88381 5.07067 10.3934 5.43792C10.903 5.80517 11.515 6.00276 12.1428 6.00276C12.7706 6.00276 13.3825 5.80517 13.8921 5.43792C14.4017 5.07067 14.7833 4.55232 14.9829 3.95608H17.1515C17.2614 3.96027 17.371 3.94221 17.4737 3.90299C17.5765 3.86376 17.6703 3.80417 17.7495 3.72778C17.8287 3.65139 17.8917 3.55977 17.9348 3.45841C17.9778 3.35705 18 3.24803 18 3.13788C18 3.02773 17.9778 2.91872 17.9348 2.81736C17.8917 2.716 17.8287 2.62438 17.7495 2.54799C17.6703 2.4716 17.5765 2.41201 17.4737 2.37278C17.371 2.33355 17.2614 2.3155 17.1515 2.31969H15.06C14.9065 1.66015 14.5349 1.07198 14.0055 0.650831C13.4761 0.229677 12.82 0.000301758 12.1439 1.55606e-09Z" fill="#1E1E1E"/>
<path d="M4.51927 6.00006C3.86409 6.0001 3.22698 6.21522 2.70547 6.61249C2.18397 7.00977 1.8068 7.5673 1.63172 8.19973L0.795356 8.22231C0.582804 8.23379 0.383106 8.32787 0.23873 8.48455C0.0943536 8.64123 0.0166891 8.84815 0.0222522 9.0613C0.0278153 9.27446 0.116167 9.47703 0.268519 9.62594C0.420871 9.77485 0.625204 9.85835 0.838065 9.85869L1.6424 9.8373C1.82291 10.4594 2.19954 11.0062 2.716 11.3961C3.23247 11.786 3.86102 11.998 4.50773 12.0004C5.15443 12.0028 5.78454 11.7955 6.30389 11.4095C6.82323 11.0234 7.20391 10.4794 7.38902 9.85869H17.1514C17.368 9.85869 17.5758 9.77249 17.729 9.61905C17.8821 9.46561 17.9682 9.2575 17.9682 9.0405C17.9682 8.8235 17.8821 8.61539 17.729 8.46195C17.5758 8.30851 17.368 8.22231 17.1514 8.22231H7.41275C7.24175 7.58459 6.86553 7.02119 6.34241 6.61942C5.81928 6.21765 5.17846 5.99995 4.51927 6.00006Z" fill="#1E1E1E"/>
<path d="M12.1428 12.0001C11.5012 12.0001 10.8765 12.2064 10.3607 12.5887C9.84495 12.971 9.46535 13.5091 9.27782 14.1237H0.815671C0.604431 14.1318 0.404525 14.2215 0.257921 14.3741C0.111318 14.5267 0.0294189 14.7302 0.0294189 14.9419C0.0294189 15.1537 0.111318 15.3572 0.257921 15.5098C0.404525 15.6623 0.604431 15.7521 0.815671 15.7601H9.23867C9.40656 16.4018 9.78199 16.9697 10.3063 17.3749C10.8305 17.7802 11.4741 18 12.1363 18C12.7985 18 13.4421 17.7802 13.9663 17.3749C14.4906 16.9697 14.866 16.4018 15.0339 15.7601H17.1468C17.2567 15.7643 17.3663 15.7463 17.469 15.707C17.5718 15.6678 17.6656 15.6082 17.7448 15.5318C17.824 15.4554 17.887 15.3638 17.9301 15.2625C17.9731 15.1611 17.9953 15.0521 17.9953 14.9419C17.9953 14.8318 17.9731 14.7228 17.9301 14.6214C17.887 14.52 17.824 14.4284 17.7448 14.352C17.6656 14.2756 17.5718 14.2161 17.469 14.1768C17.3663 14.1376 17.2567 14.1195 17.1468 14.1237H15.0066C14.8192 13.5093 14.4397 12.9713 13.9242 12.589C13.4087 12.2067 12.7842 12.0003 12.1428 12.0001Z" fill="#1E1E1E"/>
</svg>
