<svg width="16" height="16" viewBox="0 0 16 16" fill="none" xmlns="http://www.w3.org/2000/svg">
<g clip-path="url(#clip0_151_161)">
<path d="M15.9883 1.15569L13.9891 14.1262C13.9666 14.2771 13.9097 14.4209 13.823 14.5465C13.7362 14.6721 13.6218 14.7761 13.4886 14.8505C13.3554 14.925 13.2069 14.968 13.0545 14.9761C12.9021 14.9843 12.7499 14.9574 12.6095 14.8975L8.78639 13.2996L7.19701 15.6826C7.14301 15.7793 7.06411 15.8597 6.96852 15.9155C6.87292 15.9713 6.76411 16.0005 6.65341 16C6.48107 16 6.31578 15.9315 6.19392 15.8096C6.07205 15.6878 6.00359 15.5225 6.00359 15.3501V12.3462C6.00284 12.124 6.07614 11.908 6.21192 11.7322L12.9999 3.00329L3.82508 11.2616L0.620102 9.9287C0.442529 9.85471 0.289977 9.73121 0.180632 9.57292C0.0712864 9.41463 0.0097602 9.22823 0.00338772 9.03595C-0.0123181 8.84889 0.0268162 8.66131 0.116006 8.49615C0.205195 8.33098 0.340574 8.19538 0.505589 8.10594L14.5051 0.131851C14.6683 0.0384918 14.8545 -0.00691445 15.0424 0.000853036C15.2302 0.00862052 15.4121 0.0692464 15.567 0.17576C15.7219 0.282275 15.8436 0.430352 15.9182 0.602969C15.9927 0.775586 16.017 0.965734 15.9883 1.15155V1.15569Z" fill="#1E1E1E"/>
</g>
<defs>
<clipPath id="clip0_151_161">
<rect width="16" height="16" fill="white"/>
</clipPath>
</defs>
</svg>
