<svg width="16" height="17" viewBox="0 0 16 17" fill="none" xmlns="http://www.w3.org/2000/svg">
<path d="M14.581 7.74396C14.581 11.5836 11.7936 15.1798 7.98539 16.2319C7.72628 16.3026 7.44361 16.3026 7.18449 16.2319C3.3763 15.1798 0.588867 11.5836 0.588867 7.74396V4.29695C0.588867 3.65309 1.07569 2.92286 1.68029 2.67945L6.05381 0.889204C7.03531 0.488755 8.14243 0.488755 9.12392 0.889204L13.4974 2.67945C14.0942 2.92286 14.5889 3.65309 14.5889 4.29695L14.581 7.74396Z" stroke="black" stroke-width="1.17779" stroke-linecap="round" stroke-linejoin="round"/>
<path d="M7.58497 8.82755C8.00147 8.82755 8.4009 8.6621 8.69541 8.36759C8.98991 8.07309 9.15536 7.67365 9.15536 7.25716C9.15536 6.84066 8.98991 6.44123 8.69541 6.14672C8.4009 5.85222 8.00147 5.68677 7.58497 5.68677C7.16848 5.68677 6.76905 5.85222 6.47454 6.14672C6.18004 6.44123 6.01459 6.84066 6.01459 7.25716C6.01459 7.67365 6.18004 8.07309 6.47454 8.36759C6.76905 8.6621 7.16848 8.82755 7.58497 8.82755ZM7.58497 8.82755V11.1831" stroke="black" stroke-width="1.17779" stroke-miterlimit="10" stroke-linecap="round" stroke-linejoin="round"/>
</svg>
