<svg width="21" height="24" viewBox="0 0 21 24" fill="none" xmlns="http://www.w3.org/2000/svg">
<path fill-rule="evenodd" clip-rule="evenodd" d="M4.77194 5.14286C4.77194 2.30254 7.33648 0 10.5 0C13.6635 0 16.2281 2.30254 16.2281 5.14286C16.2281 7.98318 13.6635 10.2857 10.5 10.2857C7.33648 10.2857 4.77194 7.98318 4.77194 5.14286Z" fill="#262626"/>
<path fill-rule="evenodd" clip-rule="evenodd" d="M0.00014248 21.2632C0.098589 16.1321 4.76174 12 10.5 12C16.2384 12 20.9016 16.1323 20.9999 21.2636C21.0064 21.6039 20.788 21.9154 20.4435 22.0574C17.4153 23.3049 14.047 24 10.5004 24C6.95351 24 3.58487 23.3048 0.556497 22.057C0.211961 21.9151 -0.00638664 21.6035 0.00014248 21.2632Z" fill="#262626"/>
</svg>
