<svg width="48" height="48" viewBox="0 0 48 48" fill="none" xmlns="http://www.w3.org/2000/svg">
<path fill-rule="evenodd" clip-rule="evenodd" d="M13.8622 11.6429C13.8622 6.31725 18.6249 2 24.5 2C30.3751 2 35.1378 6.31725 35.1378 11.6429C35.1378 16.9685 30.3751 21.2857 24.5 21.2857C18.6249 21.2857 13.8622 16.9685 13.8622 11.6429Z" fill="#262626"/>
<path fill-rule="evenodd" clip-rule="evenodd" d="M5.00026 41.8686C5.18309 32.2476 13.8432 24.5 24.5 24.5C35.157 24.5 43.8173 32.248 43.9997 41.8692C44.0118 42.5073 43.6063 43.0914 42.9664 43.3576C37.3427 45.6967 31.0872 47 24.5007 47C17.9137 47 11.6576 45.6965 6.03349 43.3569C5.39364 43.0908 4.98814 42.5066 5.00026 41.8686Z" fill="#262626"/>
</svg>
