<svg width="16" height="18" viewBox="0 0 16 18" fill="none" xmlns="http://www.w3.org/2000/svg">
<path d="M6.80554 13.8056V16.1389C6.80554 16.5278 6.49442 16.9167 6.02776 16.9167C5.56109 16.9167 5.24998 16.5278 5.24998 16.1389V13.8056M6.80554 13.8056H5.24998M6.80554 13.8056H8.36109M5.24998 13.8056H9.91665M5.24998 13.8056C4.39442 13.8056 3.69442 13.1056 3.69442 12.25V8.36115C3.69442 7.5056 4.39442 6.8056 5.24998 6.8056H9.91665C10.7722 6.8056 11.4722 7.5056 11.4722 8.36115V12.25C11.4722 13.1056 10.7722 13.8056 9.91665 13.8056M9.91665 13.8056V16.1389C9.91665 16.5278 9.60554 16.9167 9.13887 16.9167C8.6722 16.9167 8.36109 16.5278 8.36109 16.1389V13.8056M9.91665 13.8056H8.36109M2.13887 8.36115V11.4723C2.13887 11.9389 1.82776 12.25 1.36109 12.25C0.894424 12.25 0.583313 11.9389 0.583313 11.4723V8.36115C0.583313 7.89449 0.894424 7.58337 1.36109 7.58337C1.82776 7.58337 2.13887 7.89449 2.13887 8.36115ZM14.5833 8.36115V11.4723C14.5833 11.9389 14.2722 12.25 13.8055 12.25C13.3389 12.25 13.0278 11.9389 13.0278 11.4723V8.36115C13.0278 7.89449 13.3389 7.58337 13.8055 7.58337C14.2722 7.58337 14.5833 7.89449 14.5833 8.36115ZM5.71665 5.25004H9.44998C10.15 5.25004 10.6944 4.66671 10.6944 3.91693C10.6944 2.08371 9.29442 0.583374 7.58331 0.583374C5.8722 0.583374 4.4722 2.08371 4.4722 3.91693C4.4722 4.66671 5.01665 5.25004 5.71665 5.25004Z" stroke="black" stroke-width="1.16667" stroke-miterlimit="10" stroke-linecap="round" stroke-linejoin="round"/>
</svg>
