<svg width="25" height="27" viewBox="0 0 25 27" fill="none" xmlns="http://www.w3.org/2000/svg">
<path fill-rule="evenodd" clip-rule="evenodd" d="M18.8438 0.633717C14.6586 -0.211239 10.3469 -0.211239 6.16176 0.633717C4.8596 0.907898 3.65938 1.5389 2.69531 2.45617C1.73125 3.37344 1.04135 4.5408 0.70276 5.82772L0.63976 6.05372C-0.213253 9.18703 -0.213253 12.4914 0.63976 15.6247L0.70176 15.8507C1.04088 17.1367 1.73076 18.3032 2.69438 19.2198C3.658 20.1365 4.85743 20.7672 6.15876 21.0417C7.91518 21.3975 9.69852 21.6043 11.4898 21.6597V24.3877H9.13676C8.8604 24.3877 8.59537 24.4975 8.39995 24.6929C8.20454 24.8883 8.09476 25.1534 8.09476 25.4297C8.09476 25.7061 8.20454 25.9711 8.39995 26.1665C8.59537 26.3619 8.8604 26.4717 9.13676 26.4717H15.8688C16.1451 26.4717 16.4102 26.3619 16.6056 26.1665C16.801 25.9711 16.9108 25.7061 16.9108 25.4297C16.9108 25.1534 16.801 24.8883 16.6056 24.6929C16.4102 24.4975 16.1451 24.3877 15.8688 24.3877H13.5128V21.6617C15.3039 21.6051 17.0872 21.3984 18.8438 21.0437C20.1458 20.7696 21.3459 20.1388 22.31 19.2217C23.274 18.3046 23.964 17.1375 24.3028 15.8507L24.3658 15.6247C25.2188 12.4914 25.2188 9.18703 24.3658 6.05372L24.3028 5.82772C23.9642 4.54124 23.2745 3.37427 22.3108 2.45721C21.3471 1.54016 20.1474 0.909151 18.8458 0.634718L18.8438 0.633717ZM15.5128 12.5007L15.5468 12.4697L17.7558 10.4167C17.9148 10.2658 18.0097 10.0595 18.0207 9.84053C18.0317 9.62155 17.9579 9.40676 17.8148 9.24072C17.7453 9.15973 17.6602 9.09366 17.5645 9.04648C17.4688 8.9993 17.3645 8.97198 17.258 8.96619C17.1515 8.9604 17.0449 8.97624 16.9446 9.01277C16.8444 9.04929 16.7526 9.10575 16.6748 9.17872L14.4658 11.2307C14.3158 11.3734 14.1618 11.5117 14.0038 11.6457C13.8831 11.4757 13.7674 11.3021 13.6568 11.1247L12.6928 9.63072L12.6678 9.59272C12.5061 9.32836 12.3274 9.07483 12.1328 8.83372C11.906 8.54372 11.5775 8.3507 11.2138 8.29372C10.8491 8.25588 10.4839 8.35892 10.1928 8.58172C9.94622 8.76577 9.71235 8.96622 9.49276 9.18172L9.45876 9.21272L7.25176 11.2637C7.09253 11.4145 6.99746 11.6207 6.98629 11.8397C6.97512 12.0587 7.0487 12.2736 7.19176 12.4397C7.26106 12.5209 7.34612 12.5872 7.44178 12.6345C7.53743 12.6819 7.6417 12.7093 7.74828 12.7152C7.85485 12.7211 7.96151 12.7053 8.0618 12.6688C8.16209 12.6323 8.25393 12.5758 8.33176 12.5027L10.5408 10.4517C10.7568 10.2517 10.8968 10.1227 11.0028 10.0367C11.0838 10.1457 11.1878 10.3057 11.3498 10.5557L12.3148 12.0557L12.3398 12.0937C12.5014 12.3575 12.6801 12.6103 12.8748 12.8507C13.1019 13.1406 13.4301 13.3338 13.7938 13.3917C14.1581 13.4282 14.5226 13.3241 14.8128 13.1007C15.0586 12.9158 15.2924 12.7154 15.5128 12.5007Z" fill="#262626"/>
</svg>
