<svg width="48" height="48" viewBox="0 0 48 48" fill="none" xmlns="http://www.w3.org/2000/svg">
<path fill-rule="evenodd" clip-rule="evenodd" d="M35.1577 2.1151C27.7935 0.628301 20.2065 0.628301 12.8423 2.1151C10.551 2.59755 8.43908 3.70787 6.7427 5.3219C5.04632 6.93594 3.83236 8.99004 3.23658 11.2545L3.12573 11.6522C1.62476 17.1656 1.62476 22.98 3.12573 28.4934L3.23482 28.8911C3.83155 31.154 5.04547 33.2064 6.74107 34.8194C8.43666 36.4323 10.5472 37.5423 12.837 38.0252C15.9276 38.6513 19.0656 39.0151 22.2175 39.1127V43.9129H18.0771C17.5909 43.9129 17.1245 44.1061 16.7807 44.4499C16.4368 44.7938 16.2436 45.2601 16.2436 45.7464C16.2436 46.2327 16.4368 46.6991 16.7807 47.0429C17.1245 47.3868 17.5909 47.5799 18.0771 47.5799H29.9228C30.4091 47.5799 30.8755 47.3868 31.2193 47.0429C31.5632 46.6991 31.7564 46.2327 31.7564 45.7464C31.7564 45.2601 31.5632 44.7938 31.2193 44.4499C30.8755 44.1061 30.4091 43.9129 29.9228 43.9129H25.7772V39.1162C28.9289 39.0166 32.0668 38.6529 35.1577 38.0288C37.4488 37.5464 39.5605 36.4364 41.2569 34.8227C42.9533 33.209 44.1673 31.1553 44.7634 28.8911L44.8743 28.4934C46.3752 22.98 46.3752 17.1656 44.8743 11.6522L44.7634 11.2545C44.1676 8.99082 42.9541 6.9374 41.2584 5.32374C39.5627 3.71008 37.4517 2.59975 35.1612 2.11686L35.1577 2.1151ZM29.2964 22.9964L29.3563 22.9419L33.2432 19.3294C33.5232 19.0639 33.6901 18.7008 33.7095 18.3155C33.7288 17.9302 33.599 17.5522 33.3471 17.2601C33.2248 17.1176 33.075 17.0013 32.9067 16.9183C32.7383 16.8353 32.5548 16.7872 32.3674 16.777C32.1799 16.7668 31.9924 16.7947 31.816 16.859C31.6396 16.9232 31.478 17.0226 31.3411 17.151L27.4541 20.7617C27.1902 21.0127 26.9192 21.2561 26.6412 21.4919C26.4288 21.1928 26.2253 20.8872 26.0306 20.5752L24.3343 17.9463L24.2903 17.8795C24.0059 17.4143 23.6914 16.9682 23.3489 16.5439C22.9499 16.0336 22.3719 15.694 21.7319 15.5937C21.0903 15.5271 20.4475 15.7084 19.9353 16.1005C19.5015 16.4243 19.09 16.7771 18.7036 17.1563L18.6437 17.2108L14.7603 20.8198C14.4801 21.085 14.3128 21.448 14.2932 21.8333C14.2735 22.2186 14.403 22.5967 14.6547 22.8891C14.7767 23.0319 14.9263 23.1485 15.0946 23.2318C15.263 23.3152 15.4464 23.3635 15.634 23.3738C15.8215 23.3842 16.0092 23.3564 16.1856 23.2921C16.3621 23.2279 16.5237 23.1285 16.6607 22.9999L20.5476 19.391C20.9277 19.039 21.1741 18.812 21.3606 18.6607C21.5031 18.8525 21.6861 19.1341 21.9712 19.574L23.6692 22.2134L23.7132 22.2802C23.9976 22.7443 24.3121 23.1893 24.6546 23.6123C25.0542 24.1223 25.6318 24.4623 26.2717 24.5642C26.9128 24.6284 27.5542 24.4452 28.0647 24.0522C28.4973 23.7268 28.9087 23.3741 29.2964 22.9964Z" fill="#262626"/>
</svg>
